<svg viewBox="0 0 50 50">
	<path fill="currentColor" d="M24.5,15.3c3.8,0,5.4,2.8,5.9,4.4c0.5,1.4,0.3,4.4-2.7,6.8c-0.9,0.7-1.5,1.3-1.8,1.5v1.2
		c0,0.9-0.8,1.7-1.7,1.7s-1.7-0.8-1.7-1.7v-2c0-0.5,0.2-1,0.6-1.4c0,0,0.6-0.5,2.5-2.1s1.6-3,1.5-3.1c0,0,0-0.1,0-0.2
		c-0.1-0.3-0.6-1.7-2.5-1.7l0,0c-2.1,0-2.5,1.7-2.5,1.7c-0.2,0.9-1.2,1.5-2.1,1.3c-0.9-0.2-1.5-1.2-1.3-2.1
		C19,18.2,20.6,15.3,24.5,15.3L24.5,15.3z M24.3,32.5c1,0,1.8,0.8,1.8,1.8c0,1-0.8,1.8-1.8,1.8c-1,0-1.8-0.8-1.8-1.8
		C22.5,33.3,23.4,32.5,24.3,32.5z M25,43.8C14.6,43.8,6.2,35.4,6.2,25S14.6,6.3,24.9,6.3c10.4,0,18.7,8.4,18.7,18.7
		C43.7,35.4,35.3,43.8,25,43.8z M25,2.8C12.8,2.8,2.7,12.7,2.7,25s10,22.3,22.3,22.3s22.2-10,22.2-22.3S37.3,2.8,25,2.8z"/>
</svg>
