<svg xmlns="http://www.w3.org/2000/svg" viewBox="0 0 38.5 38.5">
  <path fill="currentColor" class="cls-1"
        d="M19.25,38.5A19.25,19.25,0,1,0,0,19.25,19.28,19.28,0,0,0,19.25,38.5Zm0-35.5A16.25,16.25,0,1,1,3,19.25,16.27,16.27,0,0,1,19.25,3Z"/>
  <path fill="currentColor" class="cls-1"
        d="M19.25,28.88a1.51,1.51,0,1,0-1.5-1.51v0A1.49,1.49,0,0,0,19.25,28.88Z"/>
  <path fill="currentColor" class="cls-1"
        d="M19.25,23.07a1.7,1.7,0,0,0,1.5-1.85V11.46a1.7,1.7,0,0,0-1.5-1.85,1.7,1.7,0,0,0-1.5,1.85v9.76A1.7,1.7,0,0,0,19.25,23.07Z"/>
</svg>
