<?xml version="1.0" encoding="utf-8"?>
<!-- Generator: Adobe Illustrator 21.1.0, SVG Export Plug-In . SVG Version: 6.00 Build 0)  -->
<svg version="1.1" id="Layer_1" xmlns="http://www.w3.org/2000/svg" xmlns:xlink="http://www.w3.org/1999/xlink" x="0px" y="0px"
	 viewBox="0 0 50 50" style="enable-background:new 0 0 50 50;" xml:space="preserve">
<style type="text/css">
	.st0{fill:#1A1919;}
</style>
<title>7H</title>
<desc>Created with Sketch.</desc>
<g id="Page-1">
	<path id="_x37_H" class="st0" d="M44.1,43.3H6.4c-0.9,0-1.7,0.8-1.7,1.7s0.8,1.7,1.7,1.7h37.7c0.9,0,1.7-0.8,1.7-1.7
		C45.8,44,45.1,43.3,44.1,43.3 M8.1,30.3l18.4-18.5l4.7,4.7L12.8,34.9H8.1V30.3z M31.5,6.8l4.7,4.7l-2.8,2.8l-4.7-4.7L31.5,6.8z
		 M6.5,38.2h7c0.4,0,0.9-0.2,1.2-0.4l25-25.1c0.3-0.3,0.4-0.8,0.4-1.2s-0.2-0.9-0.4-1.2l-7-6.9c-0.3-0.3-0.8-0.4-1.2-0.4
		s-0.9,0.2-1.2,0.4l-25,25.1c-0.3,0.3-0.4,0.8-0.4,1.2v6.9C4.8,37.6,5.6,38.2,6.5,38.2z"/>
</g>
</svg>
