<?xml version="1.0" encoding="UTF-8"?>
<svg width="32px" height="32px" viewBox="0 0 32 32" version="1.1" xmlns="http://www.w3.org/2000/svg" xmlns:xlink="http://www.w3.org/1999/xlink">
    <g fill="currentColor" stroke="none" stroke-width="1">
        <path d="M23.0487854,21.5898471 C23.0487854,21.7135445 23.0116761,21.8186879 22.9374575,21.905276 C22.863239,21.9918642 22.7642807,22.0351586 22.6405832,22.0351586 C22.5168858,22.0351586 22.4179275,21.9918642 22.3437089,21.905276 C22.2694904,21.8186879 22.2323811,21.7135445 22.2323811,21.5898471 C22.2323811,21.4661497 22.2694904,21.3671914 22.3437089,21.2929728 C22.4179275,21.2187542 22.5168858,21.181645 22.6405832,21.181645 C22.7642807,21.181645 22.863239,21.2187542 22.9374575,21.2929728 C23.0116761,21.3671914 23.0487854,21.4661497 23.0487854,21.5898471 Z M11.5077973,21.181645 C11.6314947,21.181645 11.730453,21.2187542 11.8046716,21.2929728 C11.8788901,21.3671914 11.9159994,21.4661497 11.9159994,21.5898471 C11.9159994,21.7135445 11.8788901,21.8186879 11.8046716,21.905276 C11.730453,21.9918642 11.6314947,22.0351586 11.5077973,22.0351586 C11.3840998,22.0351586 11.2851416,21.9918642 11.210923,21.905276 C11.1367044,21.8186879 11.0995951,21.7135445 11.0995951,21.5898471 C11.0995951,21.4661497 11.1367044,21.3671914 11.210923,21.2929728 C11.2851416,21.2187542 11.3840998,21.181645 11.5077973,21.181645 Z M15.8866931,21.1445357 C16.0846091,21.1445357 16.195937,21.2558635 16.2206767,21.4785193 L15.5156002,21.4785193 C15.5403399,21.2558635 15.6640374,21.1445357 15.8866931,21.1445357 Z M19.8573868,21.181645 C19.9810842,21.181645 20.0862275,21.2187542 20.1728157,21.2929728 C20.2594038,21.3671914 20.3026982,21.4661497 20.3026982,21.5898471 C20.3026982,21.7135445 20.2594038,21.8186879 20.1728157,21.905276 C20.0862275,21.9918642 19.9810842,22.0351586 19.8573868,22.0351586 C19.7336893,22.0351586 19.6409161,21.9918642 19.5790671,21.905276 C19.5172181,21.8186879 19.4801088,21.7135445 19.4677392,21.5898471 C19.4553697,21.4661497 19.4862939,21.3671914 19.5605125,21.2929728 C19.634731,21.2187542 19.7336893,21.181645 19.8573868,21.181645 Z M23.7909711,22.1464864 L23.7909711,22.220705 L23.7167525,22.2949236 L23.6054247,22.1835957 L23.642534,22.1093771 L23.7167525,22.0722678 L23.7538618,22.0722678 L23.7909711,22.1464864 Z M23.7167525,22.1835957 L23.7538618,22.1835957 L23.7538618,22.1093771 L23.642534,22.1093771 L23.642534,22.220705 L23.6796433,22.220705 L23.6796433,22.1835957 L23.7167525,22.220705 L23.7538618,22.220705 L23.7167525,22.1835957 Z M26.499949,9.38089185 L26.499949,22.4433607 C26.499949,22.938151 26.3267722,23.3587233 25.980419,23.7050764 C25.6340659,24.0514296 25.2134936,24.2246065 24.7187033,24.2246065 L6.90624575,24.2246065 C6.41145545,24.2246065 5.99088316,24.0514296 5.64453001,23.7050764 C5.29817686,23.3587233 5.125,22.938151 5.125,22.4433607 L5.125,9.38089185 C5.125,8.88610155 5.29817686,8.46552926 5.64453001,8.1191761 C5.99088316,7.77282295 6.41145545,7.59964609 6.90624575,7.59964609 L24.7187033,7.59964609 C25.2134936,7.59964609 25.6340659,7.77282295 25.980419,8.1191761 C26.3267722,8.46552926 26.499949,8.88610155 26.499949,9.38089185 Z M7.49999434,14.576192 C7.49999434,15.4915545 7.72883513,16.3450681 8.18651614,17.1367327 C8.64419715,17.9283973 9.26887052,18.5530707 10.0605351,19.0107517 C10.8521997,19.4684327 11.7057133,19.6972735 12.6210759,19.6972735 C13.6601359,19.6972735 14.6126078,19.4127688 15.4784909,18.8437599 C14.5878681,18.1263139 13.9879344,17.235691 13.6786905,16.1718913 C13.3694467,15.1080915 13.3756312,14.0442924 13.6972452,12.9804926 C14.0188592,11.9166929 14.6126078,11.02607 15.4784909,10.308624 C14.6126078,9.71487542 13.6601359,9.41800113 12.6210759,9.41800113 C11.7057133,9.41800113 10.8521997,9.65302642 10.0605351,10.1230776 C9.26887052,10.5931287 8.64419715,11.2178015 8.18651614,11.9970965 C7.72883513,12.7763916 7.49999434,13.6360902 7.49999434,14.576192 Z M15.8124745,18.5839949 C16.6536185,17.9407675 17.2288125,17.111993 17.5380563,16.0976727 C17.8473002,15.0833524 17.8473002,14.0690315 17.5380563,13.0547112 C17.2288125,12.0403909 16.6536185,11.1992469 15.8124745,10.5312797 C14.9713305,11.1992469 14.3961366,12.0403909 14.0868927,13.0547112 C13.7776488,14.0690315 13.7776488,15.0833524 14.0868927,16.0976727 C14.3961366,17.111993 14.9713305,17.9407675 15.8124745,18.5839949 Z M10.5429558,21.44141 C10.5429558,21.2682331 10.493477,21.1321661 10.3945187,21.0332078 C10.2955604,20.9342495 10.1471233,20.8847707 9.94920725,20.8847707 C9.75129124,20.8847707 9.6028541,20.9713588 9.50389581,21.1445357 C9.40493752,20.9713588 9.26268545,20.8847707 9.07713901,20.8847707 C8.89159258,20.8847707 8.74934051,20.9466197 8.65038222,21.0703171 L8.65038222,20.92188 L8.35350793,20.92188 L8.35350793,22.2949236 L8.65038222,22.2949236 L8.65038222,21.96094 C8.65038222,21.6640657 8.66893686,21.4537795 8.70604615,21.3300821 C8.74315544,21.2063847 8.83592865,21.1507207 8.9843658,21.1630903 C9.13280294,21.1754599 9.22557616,21.2373089 9.26268545,21.3486367 C9.29979473,21.4599646 9.31834938,21.6640657 9.31834938,21.96094 L9.31834938,22.2949236 L9.61522367,22.2949236 L9.57811438,21.96094 C9.57811438,21.6640657 9.59666903,21.4537795 9.63377831,21.3300821 C9.6708876,21.2063847 9.76366082,21.1507207 9.91209796,21.1630903 C10.0605351,21.1754599 10.1533083,21.2373089 10.1904176,21.3486367 C10.2275269,21.4599646 10.2460815,21.6640657 10.2460815,21.96094 L10.2460815,22.2949236 L10.5429558,22.2949236 L10.5429558,21.44141 Z M12.2128737,20.92188 L11.9159994,20.92188 L11.9159994,21.0703171 C11.792302,20.9466197 11.6376798,20.8847707 11.4521334,20.8847707 C11.2665869,20.8847707 11.1119647,20.9528042 10.9882673,21.0888717 C10.8645698,21.2249393 10.8027208,21.3981156 10.8027208,21.6084018 C10.8027208,21.8186879 10.8645698,21.9918642 10.9882673,22.1279318 C11.1119647,22.2639993 11.272772,22.3320328 11.470688,22.3320328 C11.668604,22.3320328 11.8170411,22.2578143 11.9159994,22.1093771 L11.9159994,22.2949236 L12.2128737,22.2949236 L12.2128737,20.92188 Z M13.6972452,21.8867214 C13.6972452,21.7382843 13.6353962,21.6269564 13.5116988,21.5527378 C13.4374802,21.5279981 13.3075977,21.4970739 13.1220512,21.4599646 C12.9365048,21.4228553 12.8437316,21.3610063 12.8437316,21.2744182 C12.8437316,21.18783 12.9241352,21.1445357 13.084942,21.1445357 C13.2457487,21.1445357 13.4003709,21.181645 13.548808,21.2558635 L13.6601359,21.0332078 C13.4622199,20.9095104 13.227194,20.866216 12.9550595,20.9033253 C12.6829249,20.9404346 12.5468573,21.0826867 12.5468573,21.3300821 C12.5468573,21.4785193 12.6087063,21.5774775 12.7324037,21.6269564 C12.7818826,21.6764353 12.9055806,21.7135445 13.1034966,21.7382843 C13.3014126,21.763024 13.4003709,21.8248724 13.4003709,21.9238307 C13.4003709,22.022789 13.3075977,22.0722678 13.1220512,22.0722678 C12.9365048,22.0722678 12.769513,22.022789 12.6210759,21.9238307 L12.509748,22.1464864 C12.707664,22.2949236 12.9550595,22.3444024 13.2519337,22.2949236 C13.548808,22.2454447 13.6972452,22.1093771 13.6972452,21.8867214 Z M15.0331795,22.220705 L14.9218516,21.96094 C14.8228934,22.0104188 14.7239356,22.0351586 14.6249774,22.0351586 C14.5260191,22.0351586 14.4765402,21.96094 14.4765402,21.8125028 L14.4765402,21.181645 L14.9589609,21.181645 L14.9589609,20.92188 L14.4765402,20.92188 L14.4765402,20.5136778 L14.1796659,20.5136778 L14.1796659,20.92188 L13.8827916,20.92188 L13.8827916,21.181645 L14.1796659,21.181645 L14.1796659,21.8125028 C14.1796659,22.1093771 14.2848087,22.2763689 14.4950948,22.3134782 C14.705381,22.3505875 14.8847424,22.3196633 15.0331795,22.220705 Z M15.5156002,21.7382843 L16.517551,21.7382843 C16.517551,21.1692754 16.3072648,20.8847707 15.8866931,20.8847707 C15.6887771,20.8847707 15.5279698,20.9528042 15.4042724,21.0888717 C15.2805749,21.2249393 15.2187259,21.3919311 15.2187259,21.5898471 C15.2187259,21.96094 15.3671631,22.1897808 15.6640374,22.2763689 C15.9609117,22.3629571 16.2330462,22.3072931 16.4804417,22.1093771 L16.3320045,21.8867214 C16.1835674,22.0104188 16.0165756,22.0598983 15.8310292,22.0351586 C15.6454827,22.0104188 15.5403399,21.9114611 15.5156002,21.7382843 Z M17.7050481,20.92188 C17.6060898,20.8724011 17.5009471,20.860031 17.3896192,20.8847707 C17.2782913,20.9095104 17.1978877,20.9713588 17.1484088,21.0703171 L17.1484088,20.92188 L16.8515345,20.92188 L16.8515345,22.2949236 L17.1484088,22.2949236 L17.1484088,21.5156285 C17.1484088,21.3177125 17.2040728,21.2063847 17.3154006,21.181645 C17.4267285,21.1569052 17.5318713,21.1692754 17.6308296,21.2187542 L17.7050481,20.92188 Z M18.1132503,21.5898471 C18.1132503,21.3919311 18.1936539,21.2620486 18.3544606,21.2001996 C18.5152674,21.1383506 18.6822592,21.1692754 18.855436,21.2929728 L19.0038732,21.0332078 C18.7812174,20.860031 18.5214524,20.8291067 18.2245781,20.9404346 C17.9277039,21.0517625 17.7792667,21.2682331 17.7792667,21.5898471 C17.7792667,21.8372425 17.8534853,22.022789 18.0019224,22.1464864 C18.1503596,22.2701838 18.3235364,22.3320328 18.5214524,22.3320328 C18.7193684,22.3320328 18.8801757,22.2701838 19.0038732,22.1464864 L18.855436,21.9238307 C18.6822592,22.0475281 18.5152674,22.0784529 18.3544606,22.0166039 C18.1936539,21.9547549 18.1132503,21.8125028 18.1132503,21.5898471 Z M20.5624632,20.92188 L20.2655889,20.92188 L20.2655889,21.0703171 C20.1666306,20.9466197 20.0243785,20.8847707 19.8388321,20.8847707 C19.6532857,20.8847707 19.492479,20.9466197 19.3564114,21.0703171 C19.2203438,21.1940145 19.1523103,21.3671914 19.1523103,21.5898471 C19.1523103,21.8125028 19.2265289,21.9918642 19.374966,22.1279318 C19.5234032,22.2639993 19.6842099,22.3320328 19.8573868,22.3320328 C20.0305636,22.3320328 20.1666306,22.2578143 20.2655889,22.1093771 L20.2655889,22.2949236 L20.5624632,22.2949236 L20.5624632,20.92188 Z M21.8241789,20.92188 C21.7499604,20.8971402 21.6510021,20.8909557 21.5273046,20.9033253 C21.4036072,20.9156949 21.3170185,20.9713588 21.2675396,21.0703171 L21.2675396,20.92188 L20.9706653,20.92188 L20.9706653,22.2949236 L21.2675396,22.2949236 L21.2675396,21.5156285 C21.2675396,21.3424517 21.3232036,21.2373089 21.4345314,21.2001996 C21.5458593,21.1630903 21.6510021,21.1692754 21.7499604,21.2187542 L21.8241789,20.92188 Z M23.3085504,20.3652407 L23.0116761,20.3652407 L23.0116761,21.0703171 C22.9127178,20.9466197 22.7766508,20.8847707 22.603474,20.8847707 C22.4302971,20.8847707 22.2694904,20.9466197 22.1210532,21.0703171 C21.9726161,21.1940145 21.8983975,21.3671914 21.8983975,21.5898471 C21.8983975,21.8125028 21.9726161,21.9918642 22.1210532,22.1279318 C22.2694904,22.2639993 22.4364822,22.3320328 22.6220286,22.3320328 C22.807575,22.3320328 22.9374575,22.2578143 23.0116761,22.1093771 L23.0116761,22.2949236 L23.3085504,22.2949236 L23.3085504,20.3652407 Z M23.6054247,17.5820442 L23.6054247,17.7675906 L23.642534,17.7675906 L23.642534,17.5820442 L23.7167525,17.5820442 L23.7167525,17.5449349 L23.5312061,17.5449349 L23.5312061,17.5820442 L23.6054247,17.5820442 Z M23.8280804,22.1835957 L23.8280804,22.1093771 L23.7167525,22.0351586 L23.6054247,22.0722678 L23.5683154,22.1093771 L23.5683154,22.220705 C23.5683154,22.2454447 23.580685,22.2578143 23.6054247,22.2578143 L23.642534,22.2949236 L23.7538618,22.2949236 L23.8280804,22.1835957 Z M23.7538618,17.6748174 L23.7538618,17.7675906 L23.7538618,17.6748174 Z M23.7538618,17.6748174 L23.7538618,17.5820442 L23.8280804,17.7304813 L23.8651897,17.7304813 L23.9394083,17.5820442 L23.9394083,17.7675906 L23.9765176,17.7675906 L23.9765176,17.5449349 L23.902299,17.5449349 L23.8651897,17.693372 L23.7909711,17.5449349 L23.7538618,17.5449349 L23.7538618,17.6748174 Z M24.1249547,14.576192 C24.1249547,13.6360902 23.8961139,12.7763916 23.4384329,11.9970965 C22.9807519,11.2178015 22.3560785,10.5931287 21.5644139,10.1230776 C20.7727493,9.65302642 19.9192357,9.41800113 19.0038732,9.41800113 C17.9648131,9.41800113 17.0123413,9.70250585 16.1464581,10.2715147 C17.0123413,10.9889607 17.6060898,11.8857687 17.9277039,12.961938 C18.2493179,14.0381073 18.2555024,15.1080915 17.9462585,16.1718913 C17.6370146,17.235691 17.037081,18.1263139 16.1464581,18.8437599 C17.0123413,19.4127688 17.9648131,19.6972735 19.0038732,19.6972735 C19.9192357,19.6972735 20.7727493,19.4684327 21.5644139,19.0107517 C22.3560785,18.5530707 22.9807519,17.9283973 23.4384329,17.1367327 C23.8961139,16.3450681 24.1249547,15.4915545 24.1249547,14.576192 Z"></path>
    </g>
</svg>
