<?xml version="1.0" encoding="UTF-8"?>
<svg width="32px" height="32px" viewBox="0 0 32 32" version="1.1" xmlns="http://www.w3.org/2000/svg" xmlns:xlink="http://www.w3.org/1999/xlink">
    <g fill="currentColor" stroke="none" stroke-width="1">
        <path d="M24.7187033,7.56253681 C25.2134936,7.56253681 25.6340659,7.73571367 25.980419,8.08206682 C26.3267722,8.42841997 26.499949,8.84899226 26.499949,9.34378256 L26.499949,22.4062514 C26.499949,22.9010417 26.3267722,23.321614 25.980419,23.6679672 C25.6340659,24.0143203 25.2134936,24.1874972 24.7187033,24.1874972 L6.90624575,24.1874972 C6.41145545,24.1874972 5.99088316,24.0143203 5.64453001,23.6679672 C5.29817686,23.321614 5.125,22.9010417 5.125,22.4062514 L5.125,9.34378256 C5.125,8.84899226 5.29817686,8.42841997 5.64453001,8.08206682 C5.99088316,7.73571367 6.41145545,7.56253681 6.90624575,7.56253681 L24.7187033,7.56253681 Z M7.12890147,9.34378256 C7.07942261,9.34378256 7.02994319,9.36852227 6.98046433,9.41800113 C6.93098547,9.46747999 6.90624575,9.51695942 6.90624575,9.56643828 L6.90624575,11.1250283 L24.7187033,11.1250283 L24.7187033,9.56643828 C24.7187033,9.51695942 24.6939636,9.46747999 24.6444847,9.41800113 C24.5950059,9.36852227 24.5455264,9.34378256 24.4960476,9.34378256 L7.12890147,9.34378256 Z M24.4960476,22.4062514 C24.5455264,22.4062514 24.5950059,22.3815117 24.6444847,22.3320328 C24.6939636,22.282554 24.7187033,22.2330746 24.7187033,22.1835957 L24.7187033,15.875017 L6.90624575,15.875017 L6.90624575,22.1835957 C6.90624575,22.2330746 6.93098547,22.282554 6.98046433,22.3320328 C7.02994319,22.3815117 7.07942261,22.4062514 7.12890147,22.4062514 L24.4960476,22.4062514 Z M12.249983,20.1796942 C12.249983,20.3033917 12.2066887,20.408535 12.1201005,20.4951232 C12.0335124,20.5817113 11.928369,20.6250057 11.8046716,20.6250057 L9.13280294,20.6250057 C9.00910551,20.6250057 8.90396216,20.5817113 8.81737401,20.4951232 C8.73078586,20.408535 8.68749151,20.3033917 8.68749151,20.1796942 L8.68749151,18.6953228 C8.68749151,18.5716253 8.73078586,18.466482 8.81737401,18.3798938 C8.90396216,18.2933057 9.00910551,18.2500113 9.13280294,18.2500113 L11.8046716,18.2500113 C11.928369,18.2500113 12.0335124,18.2933057 12.1201005,18.3798938 C12.2066887,18.466482 12.249983,18.5716253 12.249983,18.6953228 L12.249983,20.1796942 Z M19.374966,20.1796942 C19.374966,20.3033917 19.3316717,20.408535 19.2450835,20.4951232 C19.1584954,20.5817113 19.053352,20.6250057 18.9296546,20.6250057 L13.8827916,20.6250057 C13.7590942,20.6250057 13.6539508,20.5817113 13.5673627,20.4951232 C13.4807745,20.408535 13.4374802,20.3033917 13.4374802,20.1796942 L13.4374802,18.6953228 C13.4374802,18.5716253 13.4807745,18.466482 13.5673627,18.3798938 C13.6539508,18.2933057 13.7590942,18.2500113 13.8827916,18.2500113 L18.9296546,18.2500113 C19.053352,18.2500113 19.1584954,18.2933057 19.2450835,18.3798938 C19.3316717,18.466482 19.374966,18.5716253 19.374966,18.6953228 L19.374966,20.1796942 Z"></path>
    </g>
</svg>
