<svg viewBox="0 0 50 50">
<path fill="currentColor" d="M4.7,44.7c1.1,1.1,2.5,1.7,4,1.6h32.5c1.5,0.1,3-0.5,4-1.6c1-1.1,1.5-2.6,1.4-4v-35c0-0.1,0-0.3,0-0.4
	c-0.1-0.9-0.9-1.6-1.9-1.6h-13c-1.4,0-2.5,1.1-2.5,2.5v3.3h-8.5V6.3c0-1.4-1.1-2.5-2.5-2.5H5.1C4,3.8,3.3,4.7,3.3,5.7v35
	C3.2,42.1,3.7,43.6,4.7,44.7z M16.7,7.7v3.1c0,1.4,1.1,2.5,2.5,2.5l0,0l11.2-0.1c1.4,0,2.5-1.1,2.5-2.5c0,0,0,0,0,0V7.4l9.9-0.1
	l0.3,33.3c0,0.5-0.1,1-0.4,1.4c-0.4,0.3-0.9,0.5-1.3,0.4L9.5,42.7c-0.5,0-1-0.2-1.4-0.5c-0.4-0.3-0.7-0.6-0.9-1l0-0.1L6.8,7.8
	L16.7,7.7z"/>
</svg>
