<svg viewBox="0 0 50 50">
  <path fill="currentColor" d="M32,18.1c-0.7-0.7-1.8-0.7-2.5,0L25,22.6l-4.5-4.5c-0.7-0.7-1.8-0.7-2.5,0c-0.7,0.7-0.7,1.8,0,2.5
    l4.5,4.5L18,29.6c-0.7,0.7-0.7,1.8,0,2.5c0.4,0.4,0.8,0.5,1.3,0.5c0.5,0,1-0.1,1.3-0.5l4.5-4.5l4.5,4.5c0.4,0.4,0.8,0.5,1.3,0.5
    c0.5,0,1-0.1,1.3-0.5c0.7-0.7,0.7-1.8,0-2.5l-4.5-4.5l4.5-4.5C32.7,19.9,32.7,18.7,32,18.1 M43.1,40.1c0,1.7-1.3,3-3,3H10
    c-1.7,0-3-1.3-3-3V10c0-1.7,1.3-3,3-3h30c1.7,0,3,1.3,3,3v30.1H43.1z M40.1,3.5H10c-3.6,0-6.5,3-6.5,6.5v30c0,3.6,3,6.5,6.5,6.5h30
    c3.6,0,6.5-3,6.5-6.5V10C46.6,6.5,43.7,3.5,40.1,3.5z"/>
</svg>
