<svg viewBox="0 0 50 50">
	<path fill="currentColor" d="M17.9,16.3c0.9,0,1.7,0.8,1.7,1.7v20.4c0,0.9-0.8,1.7-1.7,1.7s-1.7-0.8-1.7-1.7V18
		C16.2,17.1,17,16.3,17.9,16.3z M24.7,16.3c0.9,0,1.7,0.8,1.7,1.7v20.4c0,0.9-0.8,1.7-1.7,1.7c-0.9,0-1.7-0.8-1.7-1.7V18
		C23,17.1,23.7,16.3,24.7,16.3z M29.7,18c0-0.9,0.8-1.7,1.7-1.7c0.9,0,1.7,0.8,1.7,1.7v20.4c0,0.9-0.8,1.7-1.7,1.7
		c-0.9,0-1.7-0.8-1.7-1.7V18z M36.8,43c0,0.3-0.2,0.6-0.6,0.6h-23c-0.3,0-0.6-0.2-0.6-0.6V12.4h24.1V43H36.8z M19.6,6.7
		c0-0.3,0.2-0.6,0.6-0.6h9c0.3,0,0.6,0.2,0.6,0.6V9H19.6C19.6,9,19.6,6.7,19.6,6.7z M42.3,9h-9.2V6.7c0-2.2-1.8-4-4-4h-9
		c-2.2,0-4,1.8-4,4V9H7.3c-1,0-1.8,0.8-1.8,1.7c0,0.9,0.8,1.7,1.8,1.7h1.9V43c0,2.2,1.8,4,4,4h22.9c2.2,0,4-1.8,4-4V12.4h2.2
		c0.9,0,1.7-0.8,1.7-1.7S43.3,9,42.3,9z"/>
</svg>
