<?xml version="1.0" encoding="UTF-8"?>
<svg width="32px" height="32px" viewBox="0 0 32 32" version="1.1" xmlns="http://www.w3.org/2000/svg" xmlns:xlink="http://www.w3.org/1999/xlink">
    <g fill="currentColor" stroke="none" stroke-width="1">
        <path d="M22.5663647,14.9472848 C22.6900621,15.5162937 22.80139,16.072933 22.9003482,16.6172027 L21.6757418,16.6172027 L22.2694904,15.0215034 L22.3437089,14.835957 L22.4550368,14.4648641 L22.5663647,14.9472848 Z M26.499949,9.34378256 L26.499949,22.4062514 C26.499949,22.9010417 26.3267722,23.321614 25.980419,23.6679672 C25.6340659,24.0143203 25.2134936,24.1874972 24.7187033,24.1874972 L6.90624575,24.1874972 C6.41145545,24.1874972 5.99088316,24.0143203 5.64453001,23.6679672 C5.29817686,23.321614 5.125,22.9010417 5.125,22.4062514 L5.125,9.34378256 C5.125,8.84899226 5.29817686,8.42841997 5.64453001,8.08206682 C5.99088316,7.73571367 6.41145545,7.56253681 6.90624575,7.56253681 L24.7187033,7.56253681 C25.2134936,7.56253681 25.6340659,7.73571367 25.980419,8.08206682 C26.3267722,8.42841997 26.499949,8.84899226 26.499949,9.34378256 Z M10.8027208,18.6582135 L13.1406059,12.9062741 L11.5449066,12.9062741 L10.0976444,16.8398584 L9.42967724,13.3886948 C9.35545866,13.0918205 9.12043337,12.9310138 8.72460079,12.9062741 L6.34960646,12.9062741 L6.31249717,13.0176019 C6.88150604,13.1660391 7.40103605,13.3763252 7.8710872,13.6484598 L9.20702152,18.6582135 L10.8027208,18.6582135 Z M14.2909938,18.6582135 L15.2187259,12.9062741 L13.7343545,12.9062741 L12.8066223,18.6582135 L14.2909938,18.6582135 Z M19.4862939,16.8027492 C19.4862939,16.1595217 19.0657222,15.6276216 18.2245781,15.2070498 C17.9277039,15.0586127 17.7112332,14.9349153 17.5751656,14.835957 C17.4390981,14.7369987 17.3772496,14.6256708 17.3896192,14.5019734 C17.4019888,14.378276 17.4762073,14.2669481 17.6122749,14.1679898 C17.7483425,14.0690315 17.9524436,14.0195527 18.2245781,14.0195527 C18.6204107,13.9948129 18.9915036,14.0690315 19.3378567,14.2422084 L19.4862939,14.2793177 L19.7089496,13.0547112 C19.2883779,12.8815344 18.8430664,12.7949462 18.3730153,12.7949462 C17.6308296,12.7949462 17.0247114,12.9743076 16.5546602,13.3330309 C16.0846091,13.6917542 15.8433987,14.1618047 15.8310292,14.7431837 C15.8186596,15.3245628 16.257786,15.8379077 17.1484088,16.2832191 C17.4205434,16.4069166 17.61846,16.5244295 17.7421574,16.6357574 C17.8658549,16.7470852 17.9277039,16.8645982 17.9277039,16.9882956 C17.9277039,17.1614724 17.8349306,17.2975394 17.6493842,17.3964977 C17.4638378,17.495456 17.2411821,17.5449349 16.981417,17.5449349 C16.721652,17.5449349 16.4928112,17.5263802 16.2948952,17.489271 C16.0969792,17.4521617 15.8743235,17.371758 15.6269281,17.2480606 L15.4413817,17.1367327 L15.2187259,18.4355578 C15.6392977,18.6334738 16.195937,18.7448016 16.8886438,18.7695413 C17.6555693,18.7695413 18.2802421,18.59018 18.7626628,18.2314567 C19.2450835,17.8727334 19.4862939,17.3964977 19.4862939,16.8027492 Z M24.7187033,18.6582135 L23.5312061,12.9062741 L22.3808182,12.9062741 C21.9849857,12.9062741 21.7252206,13.0670808 21.6015232,13.3886948 L19.374966,18.6582135 L20.9335561,18.6582135 L21.2304304,17.8046999 L23.1601133,17.8046999 L23.3456597,18.6582135 L24.7187033,18.6582135 Z"></path>
    </g>
</svg>
