<svg version="1.1" id="Layer_1" xmlns="http://www.w3.org/2000/svg"
     width="16" height="14" viewBox="50 35 100 125">
  <g>
    <g>
      <path class="st0" d="M137.2,157.1H62.8c-5.8,0-10.5-4.7-10.5-10.5V49.4c0-5.8,4.7-10.5,10.5-10.5h74.4c5.8,0,10.5,4.7,10.5,10.5    v97.3C147.7,152.4,143,157.1,137.2,157.1z M62.8,47.9c-0.8,0-1.5,0.7-1.5,1.5v97.3c0,0.8,0.7,1.5,1.5,1.5h74.4    c0.8,0,1.5-0.7,1.5-1.5V49.4c0-0.8-0.7-1.5-1.5-1.5H62.8z"/>
    </g>
    <g>
      <path d="M80.6,106.4c-6.5,1.1-12.1-4.5-11-11c0.7-3.9,3.8-7.1,7.8-7.8c6.5-1.1,12.1,4.5,11,11C87.8,102.6,84.6,105.7,80.6,106.4z     M80.3,92.7c-3.4-0.9-6.4,2.1-5.5,5.5c0.4,1.5,1.6,2.7,3.1,3.1c3.4,0.9,6.4-2.1,5.5-5.5C83,94.3,81.7,93.1,80.3,92.7z"/>
      <path d="M81,133.7c-6.5,1.1-12.1-4.5-11-11c0.7-3.9,3.8-7.1,7.8-7.8c6.5-1.1,12.1,4.5,11,11C88.1,129.9,84.9,133.1,81,133.7z     M80.6,120.1c-3.4-0.9-6.4,2.1-5.5,5.5c0.4,1.5,1.6,2.7,3.1,3.1c3.4,0.9,6.4-2.1,5.5-5.5C83.3,121.7,82.1,120.5,80.6,120.1z"/>
      <path d="M86.3,62.8l-8.7,10.1l-5.2-4.6c-0.8-0.7-2.1-0.6-2.8,0.2l-0.7,0.8c-0.7,0.8-0.6,2.1,0.2,2.8l7.5,6.6    c0.8,0.7,2.1,0.6,2.8-0.2l10.7-12.4c0.7-0.8,0.6-2.1-0.2-2.8l-0.8-0.7C88.3,61.9,87,62,86.3,62.8z"/>
      <g>
        <path class="st0" d="M128.7,74.6H99.1c-1.6,0-3-1.3-3-2.9s1.3-2.9,3-2.9h29.5c1.6,0,3,1.3,3,2.9S130.3,74.6,128.7,74.6z"/>
      </g>
      <g>
        <path class="st0" d="M128.7,99.9H99.1c-1.6,0-3-1.3-3-2.9c0-1.6,1.3-2.9,3-2.9h29.5c1.6,0,3,1.3,3,2.9     C131.6,98.6,130.3,99.9,128.7,99.9z"/>
      </g>
      <g>
        <path class="st0" d="M128.7,127.3H99.1c-1.6,0-3-1.3-3-2.9c0-1.6,1.3-2.9,3-2.9h29.5c1.6,0,3,1.3,3,2.9     C131.6,126,130.3,127.3,128.7,127.3z"/>
      </g>
    </g>
  </g>
</svg>
