<?xml version="1.0" encoding="UTF-8"?>
<svg width="32px" height="32px" viewBox="0 0 32 32" version="1.1" xmlns="http://www.w3.org/2000/svg" xmlns:xlink="http://www.w3.org/1999/xlink">
    <g fill="currentColor" stroke="none" stroke-width="1">
        <path d="M8.20507078,14.2422084 C8.20507078,14.5638224 8.09374292,14.8235874 7.8710872,15.0215034 C7.69791034,15.1699405 7.42577576,15.2441591 7.0546829,15.2441591 L6.90624575,15.2441591 L6.90624575,13.2402576 L7.0546829,13.2402576 C7.42577576,13.2402576 7.69791034,13.3268458 7.8710872,13.5000226 C8.09374292,13.6731995 8.20507078,13.9205944 8.20507078,14.2422084 Z M23.6796433,13.2031484 L23.8651897,13.2031484 C24.2362826,13.2031484 24.421829,13.3577706 24.421829,13.6670144 C24.421829,13.9762583 24.2362826,14.1308805 23.8651897,14.1308805 L23.6796433,14.1308805 L23.6796433,13.2031484 Z M26.499949,9.34378256 L26.499949,22.4062514 C26.499949,22.9010417 26.3267722,23.321614 25.980419,23.6679672 C25.6340659,24.0143203 25.2134936,24.1874972 24.7187033,24.1874972 L6.90624575,24.1874972 C6.41145545,24.1874972 5.99088316,24.0143203 5.64453001,23.6679672 C5.29817686,23.321614 5.125,22.9010417 5.125,22.4062514 L5.125,9.34378256 C5.125,8.84899226 5.29817686,8.42841997 5.64453001,8.08206682 C5.99088316,7.73571367 6.41145545,7.56253681 6.90624575,7.56253681 L24.7187033,7.56253681 C25.2134936,7.56253681 25.6340659,7.73571367 25.980419,8.08206682 C26.3267722,8.42841997 26.499949,8.84899226 26.499949,9.34378256 Z M21.0077746,15.7636891 L22.6776925,15.7636891 L22.6776925,15.2441591 L21.6015232,15.2441591 L21.6015232,14.4277548 L22.6405832,14.4277548 L22.6405832,13.9082248 L21.6015232,13.9082248 L21.6015232,13.2402576 L22.6776925,13.2402576 L22.6776925,12.7207276 L21.0077746,12.7207276 L21.0077746,15.7636891 Z M17.816376,12.7207276 L19.115201,15.8379077 L19.4120753,15.8379077 L20.7480096,12.7207276 L20.0800425,12.7207276 L19.2636382,14.7617384 L18.4472339,12.7207276 L17.816376,12.7207276 Z M14.7363052,14.2793177 C14.7363052,14.7246291 14.8971119,15.1080915 15.2187259,15.4297055 C15.5403399,15.7513196 15.9299874,15.9121263 16.3876685,15.9121263 C16.8453495,15.9121263 17.234997,15.7513196 17.556611,15.4297055 C17.878225,15.1080915 18.0390317,14.718444 18.0390317,14.260763 C18.0390317,13.803082 17.878225,13.4134345 17.556611,13.0918205 C17.234997,12.7702065 16.8453495,12.6093998 16.3876685,12.6093998 C15.9299874,12.6093998 15.5403399,12.7702065 15.2187259,13.0918205 C14.8971119,13.4134345 14.7363052,13.8092665 14.7363052,14.2793177 Z M12.2128737,14.2422084 C12.2128737,14.638041 12.3303867,14.978209 12.5654119,15.2627138 C12.8004372,15.5472185 13.1034966,15.7265798 13.4745895,15.8007984 C13.8456823,15.875017 14.2044056,15.8255381 14.5507588,15.6523613 L14.5507588,14.9472848 C14.3281031,15.1946803 14.0807076,15.3121926 13.808573,15.299823 C13.5364385,15.2874535 13.3014126,15.1823101 13.1034966,14.9843941 C12.9055806,14.7864781 12.8066223,14.5390827 12.8066223,14.2422084 C12.8066223,13.9453341 12.8993955,13.6979387 13.084942,13.5000226 C13.2704884,13.3021066 13.5055137,13.2031484 13.7900184,13.2031484 C14.0745231,13.2031484 14.3281031,13.3144762 14.5507588,13.5371319 L14.5507588,12.8320555 C14.1796659,12.6588786 13.8147581,12.6155848 13.4560348,12.702173 C13.0973115,12.7887611 12.8004372,12.9743076 12.5654119,13.2588123 C12.3303867,13.543317 12.2128737,13.8711155 12.2128737,14.2422084 Z M10.951158,15.2812684 C10.6542837,15.2812684 10.431628,15.157571 10.2831908,14.9101755 L9.91209796,15.2441591 C10.1347537,15.5657731 10.4130733,15.7575041 10.7470569,15.8193531 C11.0810405,15.8812021 11.3779148,15.8193531 11.6376798,15.6338066 C11.8974448,15.4482602 12.0273273,15.1823101 12.0273273,14.835957 C12.0273273,14.5885615 11.9654783,14.4030151 11.8417809,14.2793177 C11.7180834,14.1556202 11.4830576,14.0319222 11.1367044,13.9082248 C10.9635276,13.8340062 10.8460152,13.7721572 10.7841662,13.7226784 C10.7223172,13.6731995 10.691393,13.5989809 10.691393,13.5000226 C10.691393,13.3268458 10.7965358,13.221703 11.0068219,13.1845937 C11.2171081,13.1474844 11.4212091,13.2278881 11.6191251,13.4258041 L11.9159994,13.0176019 C11.6933437,12.8196859 11.4335787,12.7083581 11.1367044,12.6836183 C10.8398301,12.6588786 10.5862502,12.7269127 10.375964,12.8877194 C10.1656779,13.0485261 10.0605351,13.2649974 10.0605351,13.5371319 C10.0605351,13.7597877 10.116199,13.9329645 10.2275269,14.0566619 C10.3388548,14.1803594 10.5367708,14.2916872 10.8212755,14.3906455 C11.1057802,14.4896038 11.2851416,14.6133012 11.3593601,14.7617384 C11.4335787,14.9101755 11.4212091,15.033873 11.3222508,15.1328313 C11.2232926,15.2317895 11.0995951,15.2812684 10.951158,15.2812684 Z M8.83592865,14.2422084 C8.83592865,13.7968969 8.68130644,13.4319891 8.37206257,13.1474844 C8.06281871,12.8629797 7.66080106,12.7207276 7.16601076,12.7207276 L6.31249717,12.7207276 L6.31249717,15.7636891 L7.16601076,15.7636891 C7.71028048,15.7636891 8.13085221,15.5905123 8.4277265,15.2441591 C8.69986108,14.9720245 8.83592865,14.638041 8.83592865,14.2422084 Z M9.68944224,12.7207276 L9.09569366,12.7207276 L9.09569366,15.7636891 L9.68944224,15.7636891 L9.68944224,12.7207276 Z M25.3124519,17.0625142 C24.6692244,17.4583467 23.6672737,17.9902463 22.3065997,18.6582135 C20.4511353,19.5488364 18.595671,20.3405009 16.7402067,21.0332078 C14.2909938,21.9485704 12.0025876,22.6041674 9.87498868,23 L24.7558126,23 C24.9042497,23 25.0341322,22.9443361 25.1454601,22.8330082 C25.2567879,22.7216804 25.3124519,22.5917978 25.3124519,22.4433607 L25.3124519,17.0625142 Z M25.3124519,15.7636891 L24.3476104,14.4648641 C24.8176616,14.3906455 25.0526869,14.1061408 25.0526869,13.6113505 C25.0526869,13.1907788 24.8671404,12.9186436 24.4960476,12.7949462 C24.2733918,12.7207276 23.902299,12.6959879 23.382769,12.7207276 L23.0858947,12.7207276 L23.0858947,15.7636891 L23.6796433,15.7636891 L23.6796433,14.5390827 L23.7538618,14.5390827 L24.5702661,15.7636891 L25.3124519,15.7636891 Z"></path>
    </g>
</svg>
