<?xml version="1.0" encoding="UTF-8"?>
<svg width="32px" height="32px" viewBox="0 0 32 32" version="1.1" xmlns="http://www.w3.org/2000/svg" xmlns:xlink="http://www.w3.org/1999/xlink">
    <g fill="currentColor" stroke="none" stroke-width="1">
        <path d="M12.0273273,15.9492356 C12.0273273,16.1718913 11.9531087,16.3636228 11.8046716,16.5244295 C11.6562344,16.6852362 11.4768731,16.7656399 11.2665869,16.7656399 C11.0563008,16.7656399 10.8954941,16.716161 10.7841662,16.6172027 C10.6728383,16.5182444 10.6171744,16.3698073 10.6171744,16.1718913 C10.6171744,15.9739753 10.697578,15.7946133 10.8583848,15.6338066 C11.0191915,15.4729999 11.1985534,15.3925963 11.3964694,15.3925963 C11.5943854,15.3925963 11.7490076,15.4420751 11.8603355,15.5410334 C11.9716634,15.6399917 12.0273273,15.7760587 12.0273273,15.9492356 Z M7.94530578,14.1679898 L8.13085221,14.1679898 C8.37824764,14.1679898 8.557609,14.198914 8.66893686,14.260763 C8.78026472,14.322612 8.81737401,14.4648641 8.78026472,14.6875198 C8.74315544,14.9101755 8.65656729,15.0586127 8.52049972,15.1328313 C8.38443214,15.2070498 8.20507078,15.2441591 7.98241506,15.2441591 L7.64843148,15.2441591 L7.83397792,14.2422084 C7.83397792,14.1927295 7.8710872,14.1679898 7.94530578,14.1679898 Z M18.4843431,14.1679898 L18.6698896,14.1679898 C18.8678056,14.1679898 19.0162427,14.1803594 19.115201,14.2050991 C19.2636382,14.2793177 19.3378567,14.4030151 19.3378567,14.576192 C19.3378567,14.8235874 19.2636382,14.9967637 19.115201,15.095722 C18.9667639,15.1946803 18.7688479,15.2441591 18.5214524,15.2441591 L18.2245781,15.2441591 L18.3730153,14.2422084 C18.3730153,14.1927295 18.4101246,14.1679898 18.4843431,14.1679898 Z M26.499949,9.34378256 L26.499949,22.4062514 C26.499949,22.9010417 26.3267722,23.321614 25.980419,23.6679672 C25.6340659,24.0143203 25.2134936,24.1874972 24.7187033,24.1874972 L6.90624575,24.1874972 C6.41145545,24.1874972 5.99088316,24.0143203 5.64453001,23.6679672 C5.29817686,23.321614 5.125,22.9010417 5.125,22.4062514 L5.125,9.34378256 C5.125,8.84899226 5.29817686,8.42841997 5.64453001,8.08206682 C5.99088316,7.73571367 6.41145545,7.56253681 6.90624575,7.56253681 L24.7187033,7.56253681 C25.2134936,7.56253681 25.6340659,7.73571367 25.980419,8.08206682 C26.3267722,8.42841997 26.499949,8.84899226 26.499949,9.34378256 Z M9.87498868,14.3535362 C9.87498868,14.0071831 9.75747575,13.7474181 9.52245045,13.5742412 C9.28742516,13.4010644 8.9843658,13.3144762 8.61327293,13.3144762 L7.12890147,13.3144762 C7.00520404,13.3144762 6.93098547,13.3763252 6.90624575,13.5000226 L6.31249717,17.2851699 C6.31249717,17.3346487 6.32486674,17.371758 6.34960646,17.3964977 C6.37434617,17.4212374 6.39908532,17.433607 6.42382503,17.433607 L7.12890147,17.433607 C7.17838033,17.433607 7.22167469,17.4150524 7.25878398,17.3779431 C7.29589326,17.3408338 7.32681748,17.2851699 7.35155719,17.2109513 L7.49999434,16.2461099 C7.52473405,16.0976727 7.71028048,16.0358237 8.05663364,16.0605634 L8.16796149,16.0605634 C8.71223122,16.0605634 9.13280294,15.9121263 9.42967724,15.615252 C9.72655153,15.3183777 9.87498868,14.897806 9.87498868,14.3535362 Z M13.029278,14.6875198 L12.3242016,14.6875198 C12.2252433,14.6875198 12.1633949,14.7864781 12.1386552,14.9843941 C11.9654783,14.7369987 11.668604,14.6133012 11.2480323,14.6133012 C10.8274606,14.6133012 10.4563677,14.780293 10.1347537,15.1142766 C9.81313968,15.4482602 9.65233296,15.8502773 9.65233296,16.3203284 C9.65233296,16.6666816 9.76366082,16.9511863 9.98631653,17.173842 C10.2089723,17.3964977 10.493477,17.5078256 10.8398301,17.5078256 C11.013007,17.5078256 11.1923683,17.4645312 11.3779148,17.3779431 C11.5634612,17.2913549 11.7180834,17.1862116 11.8417809,17.0625142 C11.8170411,17.1367327 11.8046716,17.2171364 11.8046716,17.3037245 C11.8046716,17.3903127 11.8417809,17.433607 11.9159994,17.433607 L12.5468573,17.433607 C12.6458156,17.433607 12.7200342,17.3593884 12.769513,17.2109513 L13.1406059,14.835957 C13.1406059,14.8112173 13.1282363,14.780293 13.1034966,14.7431837 C13.0787569,14.7060745 13.0416476,14.6875198 12.9921687,14.6875198 L13.029278,14.6875198 Z M14.5136495,18.3242299 L16.8886438,14.8730663 L16.8886438,14.835957 C16.8886438,14.7369987 16.8515345,14.6875198 16.777316,14.6875198 L16.0722395,14.6875198 C15.998021,14.6875198 15.936172,14.7246291 15.8866931,14.7988477 L14.9218516,16.2461099 L14.5136495,14.835957 C14.4641706,14.7369987 14.3899521,14.6875198 14.2909938,14.6875198 L13.6230266,14.6875198 C13.5240683,14.6875198 13.4745895,14.7369987 13.4745895,14.835957 L14.2909938,17.1367327 L14.2538845,17.173842 C13.7590942,17.8665489 13.5116988,18.2500113 13.5116988,18.3242299 C13.5116988,18.3984485 13.548808,18.4355578 13.6230266,18.4355578 L14.3652123,18.4355578 C14.4146912,18.4355578 14.4641706,18.3984485 14.5136495,18.3242299 Z M20.414026,14.3535362 C20.414026,14.0071831 20.2965131,13.7474181 20.0614878,13.5742412 C19.8264625,13.4010644 19.5234032,13.3144762 19.1523103,13.3144762 L17.6679388,13.3144762 C17.5442414,13.3144762 17.4700228,13.3763252 17.4452831,13.5000226 L16.8515345,17.2851699 C16.8515345,17.3346487 16.8639041,17.371758 16.8886438,17.3964977 C16.9133835,17.4212374 16.9381227,17.433607 16.9628624,17.433607 L17.7421574,17.433607 C17.816376,17.433607 17.8658549,17.3964977 17.8905946,17.3222792 L18.0390317,16.2461099 C18.0637714,16.0976727 18.2493179,16.0358237 18.595671,16.0605634 L18.7069989,16.0605634 C19.2512686,16.0605634 19.6718403,15.9121263 19.9687146,15.615252 C20.2655889,15.3183777 20.414026,14.897806 20.414026,14.3535362 Z M23.5683154,14.6875198 L22.863239,14.6875198 C22.7642807,14.6875198 22.7024322,14.7864781 22.6776925,14.9843941 C22.5292554,14.7369987 22.2323811,14.6133012 21.7870696,14.6133012 C21.3417582,14.6133012 20.9644803,14.780293 20.6552364,15.1142766 C20.3459925,15.4482602 20.1913703,15.8502773 20.1913703,16.3203284 C20.1913703,16.6666816 20.2965131,16.9511863 20.5067993,17.173842 C20.7170854,17.3964977 21.0077746,17.5078256 21.3788675,17.5078256 C21.5520444,17.5078256 21.7314057,17.4645312 21.9169522,17.3779431 C22.1024986,17.2913549 22.2447507,17.1862116 22.3437089,17.0625142 L22.3437089,17.2851699 C22.3437089,17.3841282 22.3808182,17.433607 22.4550368,17.433607 L23.0858947,17.433607 C23.184853,17.433607 23.2590715,17.3593884 23.3085504,17.2109513 L23.6796433,14.835957 C23.6796433,14.8112173 23.6672737,14.780293 23.642534,14.7431837 C23.6177943,14.7060745 23.5930551,14.6875198 23.5683154,14.6875198 Z M25.3124519,13.4629134 C25.3124519,13.3639551 25.2753426,13.3144762 25.201124,13.3144762 L24.4960476,13.3144762 C24.421829,13.3144762 24.3847197,13.3515855 24.3847197,13.4258041 L23.7909711,17.3222792 C23.7909711,17.3964977 23.8280804,17.433607 23.902299,17.433607 L24.5331569,17.433607 C24.5578966,17.433607 24.5950059,17.4150524 24.6444847,17.3779431 C24.6939636,17.3408338 24.7187033,17.2851699 24.7187033,17.2109513 L25.3124519,13.4629134 Z M21.9726161,15.3925963 C22.1457929,15.3925963 22.288045,15.4420751 22.3993729,15.5410334 C22.5107007,15.6399917 22.5663647,15.7884288 22.5663647,15.9863448 C22.5663647,16.1842609 22.4921461,16.3636228 22.3437089,16.5244295 C22.1952718,16.6852362 22.0159104,16.7656399 21.8056243,16.7656399 C21.5953381,16.7656399 21.4345314,16.716161 21.3232036,16.6172027 C21.2118757,16.5182444 21.1562118,16.3636228 21.1562118,16.1533366 C21.1562118,15.9430505 21.2366154,15.7636891 21.3974221,15.615252 C21.5582289,15.4668148 21.7499604,15.3925963 21.9726161,15.3925963 Z"></path>
    </g>
</svg>
