<?xml version="1.0" encoding="utf-8"?>
<!-- Generator: Adobe Illustrator 23.0.1, SVG Export Plug-In . SVG Version: 6.00 Build 0)  -->
<svg version="1.1" id="Layer_1" xmlns="http://www.w3.org/2000/svg" xmlns:xlink="http://www.w3.org/1999/xlink" x="0px" y="0px"
	 viewBox="0 0 120 120" style="enable-background:new 0 0 120 120;" xml:space="preserve">
<style type="text/css">
	.st0{fill:#191818;}
</style>
<g id="Layer_2_1_">
</g>
<path class="st0" d="M104.9,101.9H15.1c-1.1,0-2.1-0.6-2.6-1.5s-0.5-2.1,0-3l44.9-77.8c0.5-0.9,1.5-1.5,2.6-1.5s2.1,0.6,2.6,1.5
	l44.9,77.7c0.5,0.9,0.5,2.1,0,3C106.9,101.3,105.9,101.9,104.9,101.9z M20.3,95.9h79.4L60,27.1L20.3,95.9z"/>
<circle class="st0" cx="60" cy="84.4" r="3.9"/>
<path class="st0" d="M60,76.5c-1.7,0-3-1.3-3-3V48.4c0-1.7,1.3-3,3-3s3,1.3,3,3v25.2C63,75.2,61.7,76.5,60,76.5z"/>
</svg>
