<?xml version="1.0" encoding="UTF-8"?>
<svg width="32px" height="32px" viewBox="0 0 32 32" version="1.1" xmlns="http://www.w3.org/2000/svg" xmlns:xlink="http://www.w3.org/1999/xlink">
    <g fill="currentColor" stroke="none" stroke-width="1">
        <path d="M26.1288562,15.8379077 C25.5598473,15.8379077 25.1825694,15.8502773 24.9970229,15.875017 C24.8114765,15.8997567 24.6444847,15.9492356 24.4960476,16.0234541 L24.4960476,15.8379077 L23.6796433,15.8379077 C23.1353735,15.8379077 22.7890204,15.8502773 22.6405832,15.875017 C22.4179275,15.8997567 22.2323811,15.9616051 22.0839439,16.0605634 L22.0839439,15.8379077 L19.1523103,15.8379077 L19.1523103,16.0234541 C19.0038732,15.9492356 18.8059572,15.8997567 18.5585617,15.875017 C18.3606457,15.8502773 17.9277039,15.8379077 17.2597367,15.8379077 L16.3691138,15.8379077 L16.3691138,16.0605634 C16.1217184,15.9121263 15.8124745,15.8379077 15.4413817,15.8379077 L13.289043,15.8379077 L12.7324037,16.5058749 L12.1386552,15.8379077 L9.05858437,15.8379077 L9.05858437,19.2890713 L12.1015459,19.2890713 L12.6952945,18.6211042 L13.289043,19.2890713 L15.1073981,19.2890713 L15.1073981,18.4355578 C15.6764069,18.4355578 16.0969792,18.3489696 16.3691138,18.1757928 L16.3691138,19.2890713 L17.816376,19.2890713 L17.8534853,18.3242299 L18.1874689,18.3242299 L18.1874689,19.2890713 L20.5253539,19.2890713 C22.1086837,19.2890713 23.0426003,19.2828863 23.327105,19.2705167 C23.6116098,19.2581471 23.8280804,19.2148528 23.9765176,19.1406342 L24.0136268,19.1035249 L24.0136268,19.2890713 L24.681594,19.2890713 C25.201124,19.2890713 25.5598473,19.2767018 25.7577633,19.2519621 C26.0793773,19.2272223 26.3267722,19.1653739 26.499949,19.0664156 L26.499949,22.4062514 C26.499949,22.9010417 26.3267722,23.321614 25.980419,23.6679672 C25.6340659,24.0143203 25.2134936,24.1874972 24.7187033,24.1874972 L6.90624575,24.1874972 C6.41145545,24.1874972 5.99088316,24.0143203 5.64453001,23.6679672 C5.29817686,23.321614 5.125,22.9010417 5.125,22.4062514 L5.125,14.835957 L6.12695074,14.835957 L6.34960646,14.2793177 L7.0546829,14.2793177 L7.3144479,14.835957 L9.28124009,14.835957 L9.28124009,14.4277548 L9.46678652,14.835957 L10.5429558,14.835957 L10.7285023,14.4277548 L10.7285023,14.835957 L15.7753652,14.835957 L15.7753652,13.9082248 L16.1464581,13.9082248 L16.1464581,14.835957 L18.595671,14.835957 L18.595671,14.5019734 C18.8678056,14.7246291 19.2388985,14.835957 19.7089496,14.835957 L20.7109003,14.835957 L20.9335561,14.2793177 L21.6386325,14.2793177 L21.8983975,14.835957 L23.8280804,14.835957 L23.8280804,14.0195527 L24.3476104,14.835957 L25.8690912,14.835957 L25.8690912,11.4219026 L24.3847197,11.4219026 L24.3847197,12.126979 L23.9765176,11.4219026 L22.3808182,11.4219026 L22.3808182,12.2011976 L22.0468347,11.4219026 L19.7460589,11.4219026 C19.2760077,11.4219026 18.8925453,11.5332305 18.595671,11.7558862 L18.595671,11.4219026 L17.1112995,11.4219026 L17.1112995,11.607449 C16.9628624,11.5332305 16.7649464,11.4837516 16.517551,11.4590119 C16.3443741,11.4342722 15.9485421,11.4219026 15.3300538,11.4219026 L10.4687373,11.4219026 L10.0234258,12.5351812 L9.50389581,11.4219026 L7.79686863,11.4219026 L7.79686863,12.2011976 L7.46288505,11.4219026 L5.97851359,11.4219026 L5.125,13.4258041 L5.125,9.34378256 C5.125,8.84899226 5.29817686,8.42841997 5.64453001,8.08206682 C5.99088316,7.73571367 6.41145545,7.56253681 6.90624575,7.56253681 L24.7187033,7.56253681 C25.2134936,7.56253681 25.6340659,7.73571367 25.980419,8.08206682 C26.3267722,8.42841997 26.499949,8.84899226 26.499949,9.34378256 L26.499949,15.8379077 L26.1288562,15.8379077 Z M19.5605125,12.8691648 C19.5852522,12.8444251 19.6842099,12.8320555 19.8573868,12.8320555 L19.9687146,12.8320555 L19.7089496,13.4629134 C19.634731,13.4629134 19.5852522,13.4505438 19.5605125,13.4258041 C19.5357727,13.4010644 19.5234032,13.3082911 19.5234032,13.1474844 C19.5234032,12.9866777 19.5357727,12.8939045 19.5605125,12.8691648 Z M18.855436,17.7304813 C19.0038732,17.7799602 19.1090159,17.8603638 19.1708649,17.9716917 C19.2327139,18.0830195 19.2636382,18.2252716 19.2636382,18.3984485 L19.2265289,18.9179785 L18.6327803,18.9179785 L18.6327803,18.472667 C18.6327803,18.274751 18.595671,18.1448685 18.5214524,18.0830195 C18.4472339,18.0211705 18.2987967,17.9902463 18.076141,17.9902463 L17.4452831,17.9902463 L17.4081738,18.9179785 L16.8144253,18.9179785 L16.8144253,16.3574377 L18.2616874,16.3574377 C18.9296546,16.3574377 19.2636382,16.5800934 19.2636382,17.0254049 C19.2636382,17.173842 19.2265289,17.3099096 19.1523103,17.433607 C19.0780917,17.5573045 18.9791334,17.6562627 18.855436,17.7304813 Z M18.595671,17.1367327 C18.595671,16.9635559 18.4596034,16.8769677 18.1874689,16.8769677 L17.4452831,16.8769677 L17.4452831,17.4707163 L18.1874689,17.4707163 C18.4596034,17.4707163 18.595671,17.3593884 18.595671,17.1367327 Z M25.3495612,16.8769677 C25.1269054,16.8769677 25.0155776,16.9635559 25.0155776,17.1367327 C25.0155776,17.235691 25.0588719,17.2975394 25.1454601,17.3222792 C25.2320482,17.3470189 25.3804854,17.3593884 25.5907715,17.3593884 C25.8010577,17.3593884 25.9556793,17.371758 26.0546376,17.3964977 C26.2278145,17.4459766 26.3638815,17.5201952 26.4628398,17.6191535 L26.4628398,18.5839949 C26.3144026,18.8066506 26.042268,18.9179785 25.6464354,18.9179785 L24.4589383,18.9179785 L24.4589383,18.3613392 L25.6464354,18.3613392 C25.8443515,18.3613392 25.9433097,18.2871206 25.9433097,18.1386835 C25.9433097,18.0397252 25.9000154,17.9778767 25.8134272,17.953137 C25.7268391,17.9283973 25.5845864,17.9036582 25.3866704,17.8789185 C25.0650564,17.8789185 24.8424007,17.8418092 24.7187033,17.7675906 C24.4713079,17.6438932 24.3476104,17.4212374 24.3476104,17.0996234 C24.3476104,16.852228 24.4341986,16.6666816 24.6073754,16.5429841 C24.7805523,16.4192867 24.9908379,16.3574377 25.2382333,16.3574377 L26.4628398,16.3574377 L26.4628398,16.8769677 L25.3495612,16.8769677 Z M21.6757418,16.8769677 L20.2284796,16.8769677 L20.2284796,17.3222792 L21.6386325,17.3222792 L21.6386325,17.8418092 L20.2284796,17.8418092 L20.2284796,18.3613392 L21.6757418,18.3984485 L21.6757418,18.9179785 L19.5976217,18.9179785 L19.634731,16.3574377 L21.6757418,16.3574377 L21.6757418,16.8769677 Z M23.2343318,18.3613392 C23.4569875,18.3613392 23.5683154,18.2871206 23.5683154,18.1386835 C23.5683154,18.0397252 23.5188365,17.9716917 23.4198783,17.9345824 C23.32092,17.8974731 23.184853,17.8789185 23.0116761,17.8789185 C22.6900621,17.8789185 22.4550368,17.8418092 22.3065997,17.7675906 C22.0839439,17.6438932 21.9726161,17.4212374 21.9726161,17.0996234 C21.9726161,16.852228 22.0530197,16.6604971 22.2138264,16.5244295 C22.3746332,16.3883619 22.5911044,16.3203284 22.863239,16.3203284 L24.0878454,16.3203284 L24.0878454,16.8769677 L22.9374575,16.8769677 C22.7148018,16.8769677 22.603474,16.9511863 22.603474,17.0996234 C22.603474,17.2233209 22.6467683,17.2975394 22.7333565,17.3222792 C22.8199446,17.3470189 22.9621972,17.3593884 23.1601133,17.3593884 C23.4817273,17.3593884 23.7167525,17.3841282 23.8651897,17.433607 C24.0878454,17.5573045 24.1991733,17.7799602 24.1991733,18.1015742 C24.1991733,18.6458439 23.8775593,18.9179785 23.2343318,18.9179785 L22.0468347,18.9179785 L22.0468347,18.3613392 L23.2343318,18.3613392 Z M20.1171518,12.4609626 C19.7707986,12.4609626 19.5357727,12.4857023 19.4120753,12.5351812 C19.2141593,12.6341395 19.115201,12.8567952 19.115201,13.2031484 C19.115201,13.4505438 19.1523103,13.6360902 19.2265289,13.7597877 C19.3007475,13.8834851 19.4615542,13.9453341 19.7089496,13.9453341 L19.9687146,13.9453341 L20.8593375,11.9043233 L21.7499604,11.9043233 L22.7890204,14.3535362 L22.7890204,11.9043233 L23.7538618,11.9043233 L24.8300311,13.6855691 L24.8300311,11.9043233 L25.460889,11.9043233 L25.460889,14.4648641 L24.5702661,14.4648641 L23.4198783,12.5351812 L23.4198783,14.4648641 L22.1581625,14.4648641 L21.9355068,13.9082248 L20.6366818,13.9082248 L20.414026,14.4648641 L19.7089496,14.4648641 C18.8925453,14.4648641 18.4843431,14.0381073 18.4843431,13.1845937 C18.4843431,12.3310801 18.9049149,11.9043233 19.7460589,11.9043233 L20.3398075,11.9043233 L20.3398075,12.4609626 L20.1171518,12.4609626 Z M21.7128511,13.3886948 L21.3046489,12.3496348 L20.8593375,13.3886948 L21.7128511,13.3886948 Z M18.1874689,11.9043233 L18.1874689,14.4648641 L17.556611,14.4648641 L17.556611,11.9043233 L18.1874689,11.9043233 Z M16.7783799,13.2943919 C16.9298443,13.3647331 17.0284477,13.4456463 17.0741903,13.5371319 C17.1236691,13.6360902 17.1484088,13.7845274 17.1484088,13.9824434 L17.1484088,14.4648641 L16.5546602,14.4648641 L16.5546602,14.2050991 C16.5546602,13.9577037 16.523736,13.7845274 16.461887,13.6855691 C16.400038,13.5866108 16.2454164,13.5371319 15.998021,13.5371319 L15.3300538,13.5371319 L15.3300538,14.4648641 L14.7363052,14.4648641 L14.7363052,11.9043233 L16.1835674,11.9043233 C16.4804417,11.9043233 16.7030974,11.9414326 16.8515345,12.0156512 C17.0741903,12.1393486 17.1855181,12.3372652 17.1855181,12.6093998 C17.1855181,12.7578369 17.1484088,12.8939045 17.0741903,13.0176019 C17.0064764,13.1304582 16.907873,13.2227216 16.7783799,13.2943919 Z M16.517551,12.7207276 C16.517551,12.5475508 16.3814834,12.4609626 16.1093488,12.4609626 L15.3300538,12.4609626 L15.3300538,13.0176019 L16.1093488,13.0176019 C16.3814834,13.0176019 16.517551,12.9186436 16.517551,12.7207276 Z M14.2909938,12.4609626 L12.8437316,12.4609626 L12.8437316,12.9062741 L14.2538845,12.9062741 L14.2538845,13.4258041 L12.8437316,13.4258041 L12.8437316,13.9453341 L14.2909938,13.9453341 L14.2909938,14.4648641 L12.249983,14.4648641 L12.249983,11.9043233 L14.2909938,11.9043233 L14.2909938,12.4609626 Z M11.1738137,12.4609626 L10.2831908,14.4648641 L9.72655153,14.4648641 L8.83592865,12.4609626 L8.83592865,14.4648641 L7.57421291,14.4648641 L7.35155719,13.9082248 L6.05273216,13.9082248 L5.83007644,14.4648641 L5.16210929,14.4648641 L6.27538788,11.9043233 L7.16601076,11.9043233 L8.20507078,14.3535362 L8.20507078,11.9043233 L9.20702152,11.9043233 L10.0234258,13.6484598 L10.7656116,11.9043233 L11.7675623,11.9043233 L11.7675623,14.4648641 L11.1738137,14.4648641 L11.1738137,12.4609626 Z M6.68359003,12.3496348 L6.27538788,13.3886948 L7.12890147,13.3886948 L6.68359003,12.3496348 Z M16.517551,17.173842 C16.517551,17.5944137 16.3443741,17.8541787 15.998021,17.953137 C15.8001049,18.0273556 15.4537512,18.0644649 14.9589609,18.0644649 L14.6991959,18.0644649 L14.6991959,18.9179785 L13.4745895,18.9179785 L12.7324037,18.0644649 L11.9531087,18.9179785 L9.50389581,18.9179785 L9.50389581,16.3574377 L11.990218,16.3574377 L12.7324037,17.173842 L13.5116988,16.3574377 L15.4784909,16.3574377 C16.1711978,16.3574377 16.517551,16.6295723 16.517551,17.173842 Z M11.6562344,16.8769677 L10.1347537,16.8769677 L10.1347537,17.3222792 L11.470688,17.3222792 L11.470688,17.8418092 L10.1347537,17.8418092 L10.1347537,18.3613392 L11.6191251,18.3613392 L12.3242016,17.6191535 L11.6562344,16.8769677 Z M13.1406059,17.6191535 L14.0683381,18.6582135 L14.0683381,16.6172027 L13.1406059,17.6191535 Z M15.8495838,17.173842 C15.8495838,16.975926 15.7258864,16.8769677 15.4784909,16.8769677 L14.6991959,16.8769677 L14.6991959,17.5078256 L15.4784909,17.5078256 C15.7258864,17.5078256 15.8495838,17.3964977 15.8495838,17.173842 Z" id="cc-amex" fill="#000000"></path>
    </g>
</svg>
